<svg
      class="h-28 mx-auto"
      xmlns="http://www.w3.org/2000/svg"
      viewBox="0 0 765 765"
    >
      <defs>
        <style>
          .cls-1 {
            fill: #111;
          }
          .cls-2 {
            fill: none;
          }
        </style>
      </defs>
      <title>logo</title>
      <g id="cicle">
        <path
          class="cls-1"
          d="M1279.5,338C1068.25,338,897,509.25,897,720.5S1068.25,1103,1279.5,1103,1662,931.75,1662,720.5,1490.75,338,1279.5,338Zm-.36,736.16c-195.12,0-353.3-158.18-353.3-353.3s158.18-353.3,353.3-353.3,353.3,158.18,353.3,353.3S1474.26,1074.16,1279.14,1074.16Z"
          transform="translate(-897 -338)"
        />
      </g>
      <g id="left">
        <path
          class="cls-2"
          d="M1153.52,681.37a68.85,68.85,0,1,0,68.85,68.85A68.61,68.61,0,0,0,1153.52,681.37Z"
          transform="translate(-897 -338)"
        />
        <path
          id="left_rect"
          data-name="left rect"
          class="cls-1"
          d="M1084.21,660.47V578.1h-43.86v165A113.24,113.24,0,0,1,1084.21,660.47Z"
          transform="translate(-897 -338)"
        />
        <path
          id="left_circle"
          data-name="left circle"
          class="cls-1"
          d="M1153.52,636.82a113.4,113.4,0,0,0-113.17,106.26c-.14,2.36-.23,4.74-.23,7.14a113.4,113.4,0,1,0,113.4-113.4Zm0,182.25a68.85,68.85,0,1,1,68.85-68.85A68.85,68.85,0,0,1,1153.52,819.07Z"
          transform="translate(-897 -338)"
        />
      </g>
      <g id="right">
        <circle
          class="cls-2"
          cx="1405.56"
          cy="750"
          r="68.85"
          transform="translate(-1015.65 875.55) rotate(-45)"
        />
        <path
          id="right_rect"
          data-name="right rect"
          class="cls-1"
          d="M1336,660.47V578.1h-43.86v165A113.21,113.21,0,0,1,1336,660.47Z"
          transform="translate(-897 -338)"
        />
        <path
          id="right_cirle"
          data-name="right cirle"
          class="cls-1"
          d="M1405.32,636.82a113.4,113.4,0,0,0-113.17,106.26q-.23,3.54-.23,7.14a113.4,113.4,0,1,0,113.4-113.4Zm.24,182A68.85,68.85,0,1,1,1474.41,750,68.85,68.85,0,0,1,1405.56,818.85Z"
          transform="translate(-897 -338)"
        />
      </g>
    </svg>